<?xml version="1.0" standalone="yes"?>

<svg version="1.1" viewBox="0.0 0.0 960.0 720.0" fill="none" stroke="none" stroke-linecap="square" stroke-miterlimit="10" xmlns="http://www.w3.org/2000/svg" xmlns:xlink="http://www.w3.org/1999/xlink"><clipPath id="p.0"><path d="m0 0l960.0 0l0 720.0l-960.0 0l0 -720.0z" clip-rule="nonzero"></path></clipPath><g clip-path="url(#p.0)"><path fill="#000000" fill-opacity="0.0" d="m0 0l960.0 0l0 720.0l-960.0 0z" fill-rule="nonzero"></path><path fill="#cfe2f3" d="m330.01575 140.20735l0 0c0 -6.320114 5.123474 -11.443573 11.443573 -11.443573l143.0971 0c3.0350342 0 5.9457397 1.205658 8.091827 3.3517456c2.1460876 2.1460876 3.3517456 5.0568085 3.3517456 8.091827l0 45.774277c0 6.320114 -5.123474 11.443573 -11.443573 11.443573l-143.0971 0c-6.320099 0 -11.443573 -5.123459 -11.443573 -11.443573z" fill-rule="nonzero"></path><path stroke="#9fc5e8" stroke-width="2.0" stroke-linejoin="round" stroke-linecap="butt" d="m330.01575 140.20735l0 0c0 -6.320114 5.123474 -11.443573 11.443573 -11.443573l143.0971 0c3.0350342 0 5.9457397 1.205658 8.091827 3.3517456c2.1460876 2.1460876 3.3517456 5.0568085 3.3517456 8.091827l0 45.774277c0 6.320114 -5.123474 11.443573 -11.443573 11.443573l-143.0971 0c-6.320099 0 -11.443573 -5.123459 -11.443573 -11.443573z" fill-rule="nonzero"></path><path fill="#000000" d="m365.06256 168.08762q0.203125 0 0.359375 0.15625l0.90625 0.984375q-1.0625 1.234375 -2.5625 1.921875q-1.5 0.671875 -3.625 0.671875q-1.859375 0 -3.375 -0.640625q-1.515625 -0.640625 -2.59375 -1.796875q-1.0625 -1.15625 -1.65625 -2.765625q-0.578125 -1.625 -0.578125 -3.578125q0 -1.9375 0.625 -3.5625q0.640625 -1.625 1.78125 -2.78125q1.140625 -1.171875 2.71875 -1.8125q1.59375 -0.640625 3.515625 -0.640625q1.890625 0 3.265625 0.59375q1.375 0.578125 2.453125 1.59375l-0.765625 1.0625q-0.078125 0.125 -0.1875 0.203125q-0.109375 0.078125 -0.3125 0.078125q-0.15625 0 -0.328125 -0.109375q-0.171875 -0.125 -0.421875 -0.28125q-0.234375 -0.171875 -0.5625 -0.359375q-0.3125 -0.203125 -0.765625 -0.359375q-0.4375 -0.171875 -1.03125 -0.28125q-0.59375 -0.125 -1.359375 -0.125q-1.375 0 -2.53125 0.484375q-1.140625 0.46875 -1.96875 1.34375q-0.828125 0.875 -1.296875 2.140625q-0.453125 1.25 -0.453125 2.8125q0 1.609375 0.453125 2.875q0.46875 1.25 1.265625 2.125q0.796875 0.875 1.890625 1.328125q1.09375 0.453125 2.359375 0.453125q0.765625 0 1.375 -0.078125q0.609375 -0.09375 1.125 -0.28125q0.53125 -0.203125 0.984375 -0.5q0.453125 -0.296875 0.90625 -0.703125q0.203125 -0.171875 0.390625 -0.171875zm8.908844 -8.796875q1.328125 0 2.40625 0.453125q1.078125 0.4375 1.828125 1.25q0.75 0.8125 1.140625 1.96875q0.40625 1.15625 0.40625 2.59375q0 1.4375 -0.40625 2.59375q-0.390625 1.140625 -1.140625 1.96875q-0.75 0.8125 -1.828125 1.25q-1.078125 0.4375 -2.40625 0.4375q-1.328125 0 -2.40625 -0.4375q-1.078125 -0.4375 -1.828125 -1.25q-0.75 -0.828125 -1.171875 -1.96875q-0.40625 -1.15625 -0.40625 -2.59375q0 -1.4375 0.40625 -2.59375q0.421875 -1.15625 1.171875 -1.96875q0.75 -0.8125 1.828125 -1.25q1.078125 -0.453125 2.40625 -0.453125zm0 10.84375q1.796875 0 2.6875 -1.203125q0.890625 -1.203125 0.890625 -3.375q0 -2.171875 -0.890625 -3.375q-0.890625 -1.21875 -2.6875 -1.21875q-0.90625 0 -1.578125 0.3125q-0.671875 0.3125 -1.125 0.90625q-0.453125 0.578125 -0.671875 1.4375q-0.21875 0.859375 -0.21875 1.9375q0 1.09375 0.21875 1.953125q0.21875 0.84375 0.671875 1.421875q0.453125 0.578125 1.125 0.890625q0.671875 0.3125 1.578125 0.3125zm8.422241 1.5l0 -12.15625l1.28125 0q0.453125 0 0.5625 0.4375l0.15625 1.25q0.671875 -0.828125 1.5 -1.34375q0.84375 -0.53125 1.953125 -0.53125q1.234375 0 1.984375 0.6875q0.765625 0.671875 1.109375 1.84375q0.25 -0.65625 0.65625 -1.140625q0.421875 -0.484375 0.9375 -0.796875q0.515625 -0.3125 1.09375 -0.453125q0.59375 -0.140625 1.1875 -0.140625q0.953125 0 1.703125 0.3125q0.75 0.296875 1.265625 0.890625q0.53125 0.578125 0.8125 1.4375q0.28125 0.859375 0.28125 1.96875l0 7.734375l-2.140625 0l0 -7.734375q0 -1.4375 -0.625 -2.171875q-0.625 -0.734375 -1.8125 -0.734375q-0.53125 0 -1.0 0.1875q-0.46875 0.1875 -0.84375 0.546875q-0.359375 0.359375 -0.5625 0.90625q-0.203125 0.546875 -0.203125 1.265625l0 7.734375l-2.140625 0l0 -7.734375q0 -1.46875 -0.59375 -2.1875q-0.578125 -0.71875 -1.71875 -0.71875q-0.78125 0 -1.46875 0.421875q-0.671875 0.421875 -1.234375 1.15625l0 9.0625l-2.140625 0zm19.704132 4.109375l0 -16.265625l1.28125 0q0.453125 0 0.5625 0.4375l0.1875 1.453125q0.78125 -0.953125 1.78125 -1.53125q1.0 -0.578125 2.3125 -0.578125q1.046875 0 1.890625 0.40625q0.859375 0.40625 1.453125 1.1875q0.59375 0.78125 0.921875 1.953125q0.328125 1.15625 0.328125 2.671875q0 1.34375 -0.359375 2.5q-0.359375 1.15625 -1.03125 2.015625q-0.671875 0.84375 -1.65625 1.328125q-0.96875 0.484375 -2.203125 0.484375q-1.125 0 -1.921875 -0.375q-0.796875 -0.375 -1.40625 -1.0625l0 5.375l-2.140625 0zm5.40625 -14.75q-1.03125 0 -1.828125 0.484375q-0.78125 0.46875 -1.4375 1.34375l0 5.890625q0.578125 0.78125 1.28125 1.109375q0.703125 0.328125 1.578125 0.328125q1.6875 0 2.59375 -1.203125q0.921875 -1.21875 0.921875 -3.46875q0 -1.1875 -0.21875 -2.03125q-0.203125 -0.859375 -0.609375 -1.40625q-0.390625 -0.546875 -0.96875 -0.796875q-0.578125 -0.25 -1.3125 -0.25zm12.763702 -1.703125q1.328125 0 2.40625 0.453125q1.078125 0.4375 1.828125 1.25q0.75 0.8125 1.140625 1.96875q0.40625 1.15625 0.40625 2.59375q0 1.4375 -0.40625 2.59375q-0.390625 1.140625 -1.140625 1.96875q-0.75 0.8125 -1.828125 1.25q-1.078125 0.4375 -2.40625 0.4375q-1.328125 0 -2.40625 -0.4375q-1.078125 -0.4375 -1.828125 -1.25q-0.75 -0.828125 -1.171875 -1.96875q-0.40625 -1.15625 -0.40625 -2.59375q0 -1.4375 0.40625 -2.59375q0.421875 -1.15625 1.171875 -1.96875q0.75 -0.8125 1.828125 -1.25q1.078125 -0.453125 2.40625 -0.453125zm0 10.84375q1.796875 0 2.6875 -1.203125q0.890625 -1.203125 0.890625 -3.375q0 -2.171875 -0.890625 -3.375q-0.890625 -1.21875 -2.6875 -1.21875q-0.90625 0 -1.578125 0.3125q-0.671875 0.3125 -1.125 0.90625q-0.453125 0.578125 -0.671875 1.4375q-0.21875 0.859375 -0.21875 1.9375q0 1.09375 0.21875 1.953125q0.21875 0.84375 0.671875 1.421875q0.453125 0.578125 1.125 0.890625q0.671875 0.3125 1.578125 0.3125zm8.422241 1.5l0 -12.15625l1.28125 0q0.453125 0 0.5625 0.4375l0.171875 1.328125q0.796875 -0.875 1.765625 -1.40625q0.984375 -0.546875 2.265625 -0.546875q1.0 0 1.75 0.328125q0.765625 0.328125 1.28125 0.9375q0.515625 0.609375 0.78125 1.46875q0.265625 0.84375 0.265625 1.875l0 7.734375l-2.140625 0l0 -7.734375q0 -1.390625 -0.640625 -2.140625q-0.625 -0.765625 -1.921875 -0.765625q-0.9375 0 -1.765625 0.453125q-0.828125 0.453125 -1.515625 1.234375l0 8.953125l-2.140625 0zm18.156586 -12.34375q1.09375 0 2.015625 0.375q0.921875 0.359375 1.59375 1.046875q0.671875 0.6875 1.046875 1.703125q0.390625 1.015625 0.390625 2.3125q0 0.5 -0.109375 0.671875q-0.109375 0.15625 -0.40625 0.15625l-8.09375 0q0.03125 1.15625 0.3125 2.015625q0.28125 0.84375 0.78125 1.421875q0.515625 0.5625 1.203125 0.84375q0.703125 0.28125 1.5625 0.28125q0.8125 0 1.390625 -0.1875q0.578125 -0.1875 1.0 -0.390625q0.421875 -0.21875 0.703125 -0.40625q0.28125 -0.1875 0.484375 -0.1875q0.265625 0 0.40625 0.203125l0.609375 0.78125q-0.40625 0.484375 -0.953125 0.84375q-0.546875 0.34375 -1.1875 0.578125q-0.625 0.21875 -1.296875 0.328125q-0.671875 0.125 -1.328125 0.125q-1.265625 0 -2.328125 -0.421875q-1.0625 -0.4375 -1.84375 -1.25q-0.765625 -0.828125 -1.203125 -2.03125q-0.421875 -1.21875 -0.421875 -2.796875q0 -1.265625 0.390625 -2.359375q0.390625 -1.109375 1.109375 -1.921875q0.734375 -0.8125 1.796875 -1.265625q1.0625 -0.46875 2.375 -0.46875zm0.046875 1.5625q-1.546875 0 -2.4375 0.90625q-0.890625 0.890625 -1.09375 2.46875l6.609375 0q0 -0.734375 -0.203125 -1.359375q-0.203125 -0.625 -0.609375 -1.0625q-0.390625 -0.453125 -0.96875 -0.703125q-0.5625 -0.25 -1.296875 -0.25zm7.716736 10.78125l0 -12.15625l1.28125 0q0.453125 0 0.5625 0.4375l0.171875 1.328125q0.796875 -0.875 1.765625 -1.40625q0.984375 -0.546875 2.265625 -0.546875q1.0 0 1.75 0.328125q0.765625 0.328125 1.28125 0.9375q0.515625 0.609375 0.78125 1.46875q0.265625 0.84375 0.265625 1.875l0 7.734375l-2.140625 0l0 -7.734375q0 -1.390625 -0.640625 -2.140625q-0.625 -0.765625 -1.921875 -0.765625q-0.9375 0 -1.765625 0.453125q-0.828125 0.453125 -1.515625 1.234375l0 8.953125l-2.140625 0zm17.031586 0.1875q-1.4375 0 -2.21875 -0.796875q-0.765625 -0.8125 -0.765625 -2.3125l0 -7.453125l-1.46875 0q-0.1875 0 -0.328125 -0.109375q-0.125 -0.109375 -0.125 -0.359375l0 -0.84375l1.984375 -0.25l0.5 -3.765625q0.015625 -0.171875 0.140625 -0.28125q0.140625 -0.125 0.34375 -0.125l1.078125 0l0 4.1875l3.484375 0l0 1.546875l-3.484375 0l0 7.296875q0 0.78125 0.375 1.15625q0.375 0.359375 0.96875 0.359375q0.328125 0 0.578125 -0.078125q0.25 -0.09375 0.421875 -0.203125q0.1875 -0.109375 0.3125 -0.203125q0.125 -0.09375 0.21875 -0.09375q0.171875 0 0.296875 0.203125l0.625 1.03125q-0.546875 0.515625 -1.328125 0.8125q-0.78125 0.28125 -1.609375 0.28125z" fill-rule="nonzero"></path><path fill="#cfe2f3" d="m496.0 300.6273l0 0c0 -6.320099 5.123474 -11.443573 11.443573 -11.443573l143.09714 0c3.0349731 0 5.9457397 1.205658 8.091797 3.3517456c2.1460571 2.1460876 3.3517456 5.0568237 3.3517456 8.091827l0 45.774292c0 6.320099 -5.123474 11.443573 -11.4435425 11.443573l-143.09714 0c-6.320099 0 -11.443573 -5.123474 -11.443573 -11.443573z" fill-rule="nonzero"></path><path stroke="#9fc5e8" stroke-width="2.0" stroke-linejoin="round" stroke-linecap="butt" d="m496.0 300.6273l0 0c0 -6.320099 5.123474 -11.443573 11.443573 -11.443573l143.09714 0c3.0349731 0 5.9457397 1.205658 8.091797 3.3517456c2.1460571 2.1460876 3.3517456 5.0568237 3.3517456 8.091827l0 45.774292c0 6.320099 -5.123474 11.443573 -11.4435425 11.443573l-143.09714 0c-6.320099 0 -11.443573 -5.123474 -11.443573 -11.443573z" fill-rule="nonzero"></path><path fill="#000000" d="m531.0468 328.50757q0.203125 0 0.359375 0.15625l0.90625 0.984375q-1.0625 1.234375 -2.5625 1.921875q-1.5 0.671875 -3.625 0.671875q-1.859375 0 -3.375 -0.640625q-1.515625 -0.640625 -2.59375 -1.796875q-1.0625 -1.15625 -1.65625 -2.765625q-0.578125 -1.625 -0.578125 -3.578125q0 -1.9375 0.625 -3.5625q0.640625 -1.625 1.78125 -2.78125q1.140625 -1.171875 2.71875 -1.8125q1.59375 -0.640625 3.515625 -0.640625q1.890625 0 3.265625 0.59375q1.375 0.578125 2.453125 1.59375l-0.765625 1.0625q-0.078125 0.125 -0.1875 0.203125q-0.109375 0.078125 -0.3125 0.078125q-0.15625 0 -0.328125 -0.109375q-0.171875 -0.125 -0.421875 -0.28125q-0.234375 -0.171875 -0.5625 -0.359375q-0.3125 -0.203125 -0.765625 -0.359375q-0.4375 -0.171875 -1.03125 -0.28125q-0.59375 -0.125 -1.359375 -0.125q-1.375 0 -2.53125 0.484375q-1.140625 0.46875 -1.96875 1.34375q-0.828125 0.875 -1.296875 2.140625q-0.453125 1.25 -0.453125 2.8125q0 1.609375 0.453125 2.875q0.46875 1.25 1.265625 2.125q0.796875 0.875 1.890625 1.328125q1.09375 0.453125 2.359375 0.453125q0.765625 0 1.375 -0.078125q0.609375 -0.09375 1.125 -0.28125q0.53125 -0.203125 0.984375 -0.5q0.453125 -0.296875 0.90625 -0.703125q0.203125 -0.171875 0.390625 -0.171875zm8.9088745 -8.796875q1.328125 0 2.40625 0.453125q1.078125 0.4375 1.828125 1.25q0.75 0.8125 1.140625 1.96875q0.40625 1.15625 0.40625 2.59375q0 1.4375 -0.40625 2.59375q-0.390625 1.140625 -1.140625 1.96875q-0.75 0.8125 -1.828125 1.25q-1.078125 0.4375 -2.40625 0.4375q-1.328125 0 -2.40625 -0.4375q-1.078125 -0.4375 -1.828125 -1.25q-0.75 -0.828125 -1.171875 -1.96875q-0.40625 -1.15625 -0.40625 -2.59375q0 -1.4375 0.40625 -2.59375q0.421875 -1.15625 1.171875 -1.96875q0.75 -0.8125 1.828125 -1.25q1.078125 -0.453125 2.40625 -0.453125zm0 10.84375q1.796875 0 2.6875 -1.203125q0.890625 -1.203125 0.890625 -3.375q0 -2.171875 -0.890625 -3.375q-0.890625 -1.21875 -2.6875 -1.21875q-0.90625 0 -1.578125 0.3125q-0.671875 0.3125 -1.125 0.90625q-0.453125 0.578125 -0.671875 1.4375q-0.21875 0.859375 -0.21875 1.9375q0 1.09375 0.21875 1.953125q0.21875 0.84375 0.671875 1.421875q0.453125 0.578125 1.125 0.890625q0.671875 0.3125 1.578125 0.3125zm8.42218 1.5l0 -12.15625l1.28125 0q0.453125 0 0.5625 0.4375l0.15625 1.25q0.671875 -0.828125 1.5 -1.34375q0.84375 -0.53125 1.953125 -0.53125q1.234375 0 1.984375 0.6875q0.765625 0.671875 1.109375 1.84375q0.25 -0.65625 0.65625 -1.140625q0.421875 -0.484375 0.9375 -0.796875q0.515625 -0.3125 1.09375 -0.453125q0.59375 -0.140625 1.1875 -0.140625q0.953125 0 1.703125 0.3125q0.75 0.296875 1.265625 0.890625q0.53125 0.578125 0.8125 1.4375q0.28125 0.859375 0.28125 1.96875l0 7.734375l-2.140625 0l0 -7.734375q0 -1.4375 -0.625 -2.171875q-0.625 -0.734375 -1.8125 -0.734375q-0.53125 0 -1.0 0.1875q-0.46875 0.1875 -0.84375 0.546875q-0.359375 0.359375 -0.5625 0.90625q-0.203125 0.546875 -0.203125 1.265625l0 7.734375l-2.140625 0l0 -7.734375q0 -1.46875 -0.59375 -2.1875q-0.578125 -0.71875 -1.71875 -0.71875q-0.78125 0 -1.46875 0.421875q-0.671875 0.421875 -1.234375 1.15625l0 9.0625l-2.140625 0zm19.704163 4.109375l0 -16.265625l1.28125 0q0.453125 0 0.5625 0.4375l0.1875 1.453125q0.78125 -0.953125 1.78125 -1.53125q1.0 -0.578125 2.3125 -0.578125q1.046875 0 1.890625 0.40625q0.859375 0.40625 1.453125 1.1875q0.59375 0.78125 0.921875 1.953125q0.328125 1.15625 0.328125 2.671875q0 1.34375 -0.359375 2.5q-0.359375 1.15625 -1.03125 2.015625q-0.671875 0.84375 -1.65625 1.328125q-0.96875 0.484375 -2.203125 0.484375q-1.125 0 -1.921875 -0.375q-0.796875 -0.375 -1.40625 -1.0625l0 5.375l-2.140625 0zm5.40625 -14.75q-1.03125 0 -1.828125 0.484375q-0.78125 0.46875 -1.4375 1.34375l0 5.890625q0.578125 0.78125 1.28125 1.109375q0.703125 0.328125 1.578125 0.328125q1.6875 0 2.59375 -1.203125q0.921875 -1.21875 0.921875 -3.46875q0 -1.1875 -0.21875 -2.03125q-0.203125 -0.859375 -0.609375 -1.40625q-0.390625 -0.546875 -0.96875 -0.796875q-0.578125 -0.25 -1.3125 -0.25zm12.763733 -1.703125q1.328125 0 2.40625 0.453125q1.078125 0.4375 1.828125 1.25q0.75 0.8125 1.140625 1.96875q0.40625 1.15625 0.40625 2.59375q0 1.4375 -0.40625 2.59375q-0.390625 1.140625 -1.140625 1.96875q-0.75 0.8125 -1.828125 1.25q-1.078125 0.4375 -2.40625 0.4375q-1.328125 0 -2.40625 -0.4375q-1.078125 -0.4375 -1.828125 -1.25q-0.75 -0.828125 -1.171875 -1.96875q-0.40625 -1.15625 -0.40625 -2.59375q0 -1.4375 0.40625 -2.59375q0.421875 -1.15625 1.171875 -1.96875q0.75 -0.8125 1.828125 -1.25q1.078125 -0.453125 2.40625 -0.453125zm0 10.84375q1.796875 0 2.6875 -1.203125q0.890625 -1.203125 0.890625 -3.375q0 -2.171875 -0.890625 -3.375q-0.890625 -1.21875 -2.6875 -1.21875q-0.90625 0 -1.578125 0.3125q-0.671875 0.3125 -1.125 0.90625q-0.453125 0.578125 -0.671875 1.4375q-0.21875 0.859375 -0.21875 1.9375q0 1.09375 0.21875 1.953125q0.21875 0.84375 0.671875 1.421875q0.453125 0.578125 1.125 0.890625q0.671875 0.3125 1.578125 0.3125zm8.42218 1.5l0 -12.15625l1.28125 0q0.453125 0 0.5625 0.4375l0.171875 1.328125q0.796875 -0.875 1.765625 -1.40625q0.984375 -0.546875 2.265625 -0.546875q1.0 0 1.75 0.328125q0.765625 0.328125 1.28125 0.9375q0.515625 0.609375 0.78125 1.46875q0.265625 0.84375 0.265625 1.875l0 7.734375l-2.140625 0l0 -7.734375q0 -1.390625 -0.640625 -2.140625q-0.625 -0.765625 -1.921875 -0.765625q-0.9375 0 -1.765625 0.453125q-0.828125 0.453125 -1.515625 1.234375l0 8.953125l-2.140625 0zm18.156616 -12.34375q1.09375 0 2.015625 0.375q0.921875 0.359375 1.59375 1.046875q0.671875 0.6875 1.046875 1.703125q0.390625 1.015625 0.390625 2.3125q0 0.5 -0.109375 0.671875q-0.109375 0.15625 -0.40625 0.15625l-8.09375 0q0.03125 1.15625 0.3125 2.015625q0.28125 0.84375 0.78125 1.421875q0.515625 0.5625 1.203125 0.84375q0.703125 0.28125 1.5625 0.28125q0.8125 0 1.390625 -0.1875q0.578125 -0.1875 1.0 -0.390625q0.421875 -0.21875 0.703125 -0.40625q0.28125 -0.1875 0.484375 -0.1875q0.265625 0 0.40625 0.203125l0.609375 0.78125q-0.40625 0.484375 -0.953125 0.84375q-0.546875 0.34375 -1.1875 0.578125q-0.625 0.21875 -1.296875 0.328125q-0.671875 0.125 -1.328125 0.125q-1.265625 0 -2.328125 -0.421875q-1.0625 -0.4375 -1.84375 -1.25q-0.765625 -0.828125 -1.203125 -2.03125q-0.421875 -1.21875 -0.421875 -2.796875q0 -1.265625 0.390625 -2.359375q0.390625 -1.109375 1.109375 -1.921875q0.734375 -0.8125 1.796875 -1.265625q1.0625 -0.46875 2.375 -0.46875zm0.046875 1.5625q-1.546875 0 -2.4375 0.90625q-0.890625 0.890625 -1.09375 2.46875l6.609375 0q0 -0.734375 -0.203125 -1.359375q-0.203125 -0.625 -0.609375 -1.0625q-0.390625 -0.453125 -0.96875 -0.703125q-0.5625 -0.25 -1.296875 -0.25zm7.716736 10.78125l0 -12.15625l1.28125 0q0.453125 0 0.5625 0.4375l0.171875 1.328125q0.796875 -0.875 1.765625 -1.40625q0.984375 -0.546875 2.265625 -0.546875q1.0 0 1.75 0.328125q0.765625 0.328125 1.28125 0.9375q0.515625 0.609375 0.78125 1.46875q0.265625 0.84375 0.265625 1.875l0 7.734375l-2.140625 0l0 -7.734375q0 -1.390625 -0.640625 -2.140625q-0.625 -0.765625 -1.921875 -0.765625q-0.9375 0 -1.765625 0.453125q-0.828125 0.453125 -1.515625 1.234375l0 8.953125l-2.140625 0zm17.031616 0.1875q-1.4375 0 -2.21875 -0.796875q-0.765625 -0.8125 -0.765625 -2.3125l0 -7.453125l-1.46875 0q-0.1875 0 -0.328125 -0.109375q-0.125 -0.109375 -0.125 -0.359375l0 -0.84375l1.984375 -0.25l0.5 -3.765625q0.015625 -0.171875 0.140625 -0.28125q0.140625 -0.125 0.34375 -0.125l1.078125 0l0 4.1875l3.484375 0l0 1.546875l-3.484375 0l0 7.296875q0 0.78125 0.375 1.15625q0.375 0.359375 0.96875 0.359375q0.328125 0 0.578125 -0.078125q0.25 -0.09375 0.421875 -0.203125q0.1875 -0.109375 0.3125 -0.203125q0.125 -0.09375 0.21875 -0.09375q0.171875 0 0.296875 0.203125l0.625 1.03125q-0.546875 0.515625 -1.328125 0.8125q-0.78125 0.28125 -1.609375 0.28125z" fill-rule="nonzero"></path><path fill="#cfe2f3" d="m164.0315 300.6273l0 0c0 -6.320099 5.123459 -11.443573 11.443573 -11.443573l143.0971 0c3.0350342 0 5.9457397 1.205658 8.091827 3.3517456c2.1460876 2.1460876 3.3517456 5.0568237 3.3517456 8.091827l0 45.774292c0 6.320099 -5.123474 11.443573 -11.443573 11.443573l-143.0971 0c-6.320114 0 -11.443573 -5.123474 -11.443573 -11.443573z" fill-rule="nonzero"></path><path stroke="#9fc5e8" stroke-width="2.0" stroke-linejoin="round" stroke-linecap="butt" d="m164.0315 300.6273l0 0c0 -6.320099 5.123459 -11.443573 11.443573 -11.443573l143.0971 0c3.0350342 0 5.9457397 1.205658 8.091827 3.3517456c2.1460876 2.1460876 3.3517456 5.0568237 3.3517456 8.091827l0 45.774292c0 6.320099 -5.123474 11.443573 -11.443573 11.443573l-143.0971 0c-6.320114 0 -11.443573 -5.123474 -11.443573 -11.443573z" fill-rule="nonzero"></path><path fill="#000000" d="m199.07831 328.50757q0.203125 0 0.359375 0.15625l0.90625 0.984375q-1.0625 1.234375 -2.5625 1.921875q-1.5 0.671875 -3.625 0.671875q-1.859375 0 -3.375 -0.640625q-1.515625 -0.640625 -2.59375 -1.796875q-1.0625 -1.15625 -1.65625 -2.765625q-0.578125 -1.625 -0.578125 -3.578125q0 -1.9375 0.625 -3.5625q0.640625 -1.625 1.78125 -2.78125q1.140625 -1.171875 2.71875 -1.8125q1.59375 -0.640625 3.515625 -0.640625q1.890625 0 3.265625 0.59375q1.375 0.578125 2.453125 1.59375l-0.765625 1.0625q-0.078125 0.125 -0.1875 0.203125q-0.109375 0.078125 -0.3125 0.078125q-0.15625 0 -0.328125 -0.109375q-0.171875 -0.125 -0.421875 -0.28125q-0.234375 -0.171875 -0.5625 -0.359375q-0.3125 -0.203125 -0.765625 -0.359375q-0.4375 -0.171875 -1.03125 -0.28125q-0.59375 -0.125 -1.359375 -0.125q-1.375 0 -2.53125 0.484375q-1.140625 0.46875 -1.96875 1.34375q-0.828125 0.875 -1.296875 2.140625q-0.453125 1.25 -0.453125 2.8125q0 1.609375 0.453125 2.875q0.46875 1.25 1.265625 2.125q0.796875 0.875 1.890625 1.328125q1.09375 0.453125 2.359375 0.453125q0.765625 0 1.375 -0.078125q0.609375 -0.09375 1.125 -0.28125q0.53125 -0.203125 0.984375 -0.5q0.453125 -0.296875 0.90625 -0.703125q0.203125 -0.171875 0.390625 -0.171875zm8.908859 -8.796875q1.328125 0 2.40625 0.453125q1.078125 0.4375 1.828125 1.25q0.75 0.8125 1.140625 1.96875q0.40625 1.15625 0.40625 2.59375q0 1.4375 -0.40625 2.59375q-0.390625 1.140625 -1.140625 1.96875q-0.75 0.8125 -1.828125 1.25q-1.078125 0.4375 -2.40625 0.4375q-1.328125 0 -2.40625 -0.4375q-1.078125 -0.4375 -1.828125 -1.25q-0.75 -0.828125 -1.171875 -1.96875q-0.40625 -1.15625 -0.40625 -2.59375q0 -1.4375 0.40625 -2.59375q0.421875 -1.15625 1.171875 -1.96875q0.75 -0.8125 1.828125 -1.25q1.078125 -0.453125 2.40625 -0.453125zm0 10.84375q1.796875 0 2.6875 -1.203125q0.890625 -1.203125 0.890625 -3.375q0 -2.171875 -0.890625 -3.375q-0.890625 -1.21875 -2.6875 -1.21875q-0.90625 0 -1.578125 0.3125q-0.671875 0.3125 -1.125 0.90625q-0.453125 0.578125 -0.671875 1.4375q-0.21875 0.859375 -0.21875 1.9375q0 1.09375 0.21875 1.953125q0.21875 0.84375 0.671875 1.421875q0.453125 0.578125 1.125 0.890625q0.671875 0.3125 1.578125 0.3125zm8.422226 1.5l0 -12.15625l1.28125 0q0.453125 0 0.5625 0.4375l0.15625 1.25q0.671875 -0.828125 1.5 -1.34375q0.84375 -0.53125 1.953125 -0.53125q1.234375 0 1.984375 0.6875q0.765625 0.671875 1.109375 1.84375q0.25 -0.65625 0.65625 -1.140625q0.421875 -0.484375 0.9375 -0.796875q0.515625 -0.3125 1.09375 -0.453125q0.59375 -0.140625 1.1875 -0.140625q0.953125 0 1.703125 0.3125q0.75 0.296875 1.265625 0.890625q0.53125 0.578125 0.8125 1.4375q0.28125 0.859375 0.28125 1.96875l0 7.734375l-2.140625 0l0 -7.734375q0 -1.4375 -0.625 -2.171875q-0.625 -0.734375 -1.8125 -0.734375q-0.53125 0 -1.0 0.1875q-0.46875 0.1875 -0.84375 0.546875q-0.359375 0.359375 -0.5625 0.90625q-0.203125 0.546875 -0.203125 1.265625l0 7.734375l-2.140625 0l0 -7.734375q0 -1.46875 -0.59375 -2.1875q-0.578125 -0.71875 -1.71875 -0.71875q-0.78125 0 -1.46875 0.421875q-0.671875 0.421875 -1.234375 1.15625l0 9.0625l-2.140625 0zm19.704132 4.109375l0 -16.265625l1.28125 0q0.453125 0 0.5625 0.4375l0.1875 1.453125q0.78125 -0.953125 1.78125 -1.53125q1.0 -0.578125 2.3125 -0.578125q1.046875 0 1.890625 0.40625q0.859375 0.40625 1.453125 1.1875q0.59375 0.78125 0.921875 1.953125q0.328125 1.15625 0.328125 2.671875q0 1.34375 -0.359375 2.5q-0.359375 1.15625 -1.03125 2.015625q-0.671875 0.84375 -1.65625 1.328125q-0.96875 0.484375 -2.203125 0.484375q-1.125 0 -1.921875 -0.375q-0.796875 -0.375 -1.40625 -1.0625l0 5.375l-2.140625 0zm5.40625 -14.75q-1.03125 0 -1.828125 0.484375q-0.78125 0.46875 -1.4375 1.34375l0 5.890625q0.578125 0.78125 1.28125 1.109375q0.703125 0.328125 1.578125 0.328125q1.6875 0 2.59375 -1.203125q0.921875 -1.21875 0.921875 -3.46875q0 -1.1875 -0.21875 -2.03125q-0.203125 -0.859375 -0.609375 -1.40625q-0.390625 -0.546875 -0.96875 -0.796875q-0.578125 -0.25 -1.3125 -0.25zm12.763718 -1.703125q1.328125 0 2.4062347 0.453125q1.078125 0.4375 1.828125 1.25q0.75 0.8125 1.140625 1.96875q0.40625 1.15625 0.40625 2.59375q0 1.4375 -0.40625 2.59375q-0.390625 1.140625 -1.140625 1.96875q-0.75 0.8125 -1.828125 1.25q-1.0781097 0.4375 -2.4062347 0.4375q-1.328125 0 -2.40625 -0.4375q-1.078125 -0.4375 -1.828125 -1.25q-0.75 -0.828125 -1.171875 -1.96875q-0.40625 -1.15625 -0.40625 -2.59375q0 -1.4375 0.40625 -2.59375q0.421875 -1.15625 1.171875 -1.96875q0.75 -0.8125 1.828125 -1.25q1.078125 -0.453125 2.40625 -0.453125zm0 10.84375q1.7968597 0 2.6874847 -1.203125q0.890625 -1.203125 0.890625 -3.375q0 -2.171875 -0.890625 -3.375q-0.890625 -1.21875 -2.6874847 -1.21875q-0.90625 0 -1.578125 0.3125q-0.671875 0.3125 -1.125 0.90625q-0.453125 0.578125 -0.671875 1.4375q-0.21875 0.859375 -0.21875 1.9375q0 1.09375 0.21875 1.953125q0.21875 0.84375 0.671875 1.421875q0.453125 0.578125 1.125 0.890625q0.671875 0.3125 1.578125 0.3125zm8.422226 1.5l0 -12.15625l1.28125 0q0.453125 0 0.5625 0.4375l0.171875 1.328125q0.796875 -0.875 1.765625 -1.40625q0.984375 -0.546875 2.265625 -0.546875q1.0 0 1.75 0.328125q0.765625 0.328125 1.28125 0.9375q0.515625 0.609375 0.78125 1.46875q0.265625 0.84375 0.265625 1.875l0 7.734375l-2.140625 0l0 -7.734375q0 -1.390625 -0.640625 -2.140625q-0.625 -0.765625 -1.921875 -0.765625q-0.9375 0 -1.765625 0.453125q-0.828125 0.453125 -1.515625 1.234375l0 8.953125l-2.140625 0zm18.156586 -12.34375q1.09375 0 2.015625 0.375q0.921875 0.359375 1.59375 1.046875q0.671875 0.6875 1.046875 1.703125q0.390625 1.015625 0.390625 2.3125q0 0.5 -0.109375 0.671875q-0.109375 0.15625 -0.40625 0.15625l-8.09375 0q0.03125 1.15625 0.3125 2.015625q0.28125 0.84375 0.78125 1.421875q0.515625 0.5625 1.203125 0.84375q0.703125 0.28125 1.5625 0.28125q0.8125 0 1.390625 -0.1875q0.578125 -0.1875 1.0 -0.390625q0.421875 -0.21875 0.703125 -0.40625q0.28125 -0.1875 0.484375 -0.1875q0.265625 0 0.40625 0.203125l0.609375 0.78125q-0.40625 0.484375 -0.953125 0.84375q-0.546875 0.34375 -1.1875 0.578125q-0.625 0.21875 -1.296875 0.328125q-0.671875 0.125 -1.328125 0.125q-1.265625 0 -2.328125 -0.421875q-1.0625 -0.4375 -1.84375 -1.25q-0.765625 -0.828125 -1.203125 -2.03125q-0.421875 -1.21875 -0.421875 -2.796875q0 -1.265625 0.390625 -2.359375q0.390625 -1.109375 1.109375 -1.921875q0.734375 -0.8125 1.796875 -1.265625q1.0625 -0.46875 2.375 -0.46875zm0.046875 1.5625q-1.546875 0 -2.4375 0.90625q-0.890625 0.890625 -1.09375 2.46875l6.609375 0q0 -0.734375 -0.203125 -1.359375q-0.203125 -0.625 -0.609375 -1.0625q-0.390625 -0.453125 -0.96875 -0.703125q-0.5625 -0.25 -1.296875 -0.25zm7.716736 10.78125l0 -12.15625l1.28125 0q0.453125 0 0.5625 0.4375l0.171875 1.328125q0.796875 -0.875 1.765625 -1.40625q0.984375 -0.546875 2.265625 -0.546875q1.0 0 1.75 0.328125q0.765625 0.328125 1.28125 0.9375q0.515625 0.609375 0.78125 1.46875q0.265625 0.84375 0.265625 1.875l0 7.734375l-2.140625 0l0 -7.734375q0 -1.390625 -0.640625 -2.140625q-0.625 -0.765625 -1.921875 -0.765625q-0.9375 0 -1.765625 0.453125q-0.828125 0.453125 -1.515625 1.234375l0 8.953125l-2.140625 0zm17.031586 0.1875q-1.4375 0 -2.21875 -0.796875q-0.765625 -0.8125 -0.765625 -2.3125l0 -7.453125l-1.46875 0q-0.1875 0 -0.328125 -0.109375q-0.125 -0.109375 -0.125 -0.359375l0 -0.84375l1.984375 -0.25l0.5 -3.765625q0.015625 -0.171875 0.140625 -0.28125q0.140625 -0.125 0.34375 -0.125l1.078125 0l0 4.1875l3.484375 0l0 1.546875l-3.484375 0l0 7.296875q0 0.78125 0.375 1.15625q0.375 0.359375 0.96875 0.359375q0.328125 0 0.578125 -0.078125q0.25 -0.09375 0.421875 -0.203125q0.1875 -0.109375 0.3125 -0.203125q0.125 -0.09375 0.21875 -0.09375q0.171875 0 0.296875 0.203125l0.625 1.03125q-0.546875 0.515625 -1.328125 0.8125q-0.78125 0.28125 -1.609375 0.28125z" fill-rule="nonzero"></path><path fill="#cfe2f3" d="m629.98425 464.86905l0 0c0 -6.320099 5.123474 -11.4435425 11.4435425 -11.4435425l143.09717 0c3.0349731 0 5.9457397 1.205658 8.091797 3.3517456c2.1460571 2.1460571 3.3517456 5.056793 3.3517456 8.091797l0 45.774292c0 6.320099 -5.123474 11.443573 -11.4435425 11.443573l-143.09717 0c-6.3200684 0 -11.4435425 -5.123474 -11.4435425 -11.443573z" fill-rule="nonzero"></path><path stroke="#9fc5e8" stroke-width="2.0" stroke-linejoin="round" stroke-linecap="butt" d="m629.98425 464.86905l0 0c0 -6.320099 5.123474 -11.4435425 11.4435425 -11.4435425l143.09717 0c3.0349731 0 5.9457397 1.205658 8.091797 3.3517456c2.1460571 2.1460571 3.3517456 5.056793 3.3517456 8.091797l0 45.774292c0 6.320099 -5.123474 11.443573 -11.4435425 11.443573l-143.09717 0c-6.3200684 0 -11.4435425 -5.123474 -11.4435425 -11.443573z" fill-rule="nonzero"></path><path fill="#000000" d="m665.03107 492.74933q0.203125 0 0.359375 0.15625l0.90625 0.984375q-1.0625 1.234375 -2.5625 1.921875q-1.5 0.671875 -3.625 0.671875q-1.859375 0 -3.375 -0.640625q-1.515625 -0.640625 -2.59375 -1.796875q-1.0625 -1.15625 -1.65625 -2.765625q-0.578125 -1.625 -0.578125 -3.578125q0 -1.9375 0.625 -3.5625q0.640625 -1.625 1.78125 -2.78125q1.140625 -1.171875 2.71875 -1.8125q1.59375 -0.640625 3.515625 -0.640625q1.890625 0 3.265625 0.59375q1.375 0.578125 2.453125 1.59375l-0.765625 1.0625q-0.078125 0.125 -0.1875 0.203125q-0.109375 0.078125 -0.3125 0.078125q-0.15625 0 -0.328125 -0.109375q-0.171875 -0.125 -0.421875 -0.28125q-0.234375 -0.171875 -0.5625 -0.359375q-0.3125 -0.203125 -0.765625 -0.359375q-0.4375 -0.171875 -1.03125 -0.28125q-0.59375 -0.125 -1.359375 -0.125q-1.375 0 -2.53125 0.484375q-1.140625 0.46875 -1.96875 1.34375q-0.828125 0.875 -1.296875 2.140625q-0.453125 1.25 -0.453125 2.8125q0 1.609375 0.453125 2.875q0.46875 1.25 1.265625 2.125q0.796875 0.875 1.890625 1.328125q1.09375 0.453125 2.359375 0.453125q0.765625 0 1.375 -0.078125q0.609375 -0.09375 1.125 -0.28125q0.53125 -0.203125 0.984375 -0.5q0.453125 -0.296875 0.90625 -0.703125q0.203125 -0.171875 0.390625 -0.171875zm8.9088745 -8.796875q1.328125 0 2.40625 0.453125q1.078125 0.4375 1.828125 1.25q0.75 0.8125 1.140625 1.96875q0.40625 1.15625 0.40625 2.59375q0 1.4375 -0.40625 2.59375q-0.390625 1.140625 -1.140625 1.96875q-0.75 0.8125 -1.828125 1.25q-1.078125 0.4375 -2.40625 0.4375q-1.328125 0 -2.40625 -0.4375q-1.078125 -0.4375 -1.828125 -1.25q-0.75 -0.828125 -1.171875 -1.96875q-0.40625 -1.15625 -0.40625 -2.59375q0 -1.4375 0.40625 -2.59375q0.421875 -1.15625 1.171875 -1.96875q0.75 -0.8125 1.828125 -1.25q1.078125 -0.453125 2.40625 -0.453125zm0 10.84375q1.796875 0 2.6875 -1.203125q0.890625 -1.203125 0.890625 -3.375q0 -2.171875 -0.890625 -3.375q-0.890625 -1.21875 -2.6875 -1.21875q-0.90625 0 -1.578125 0.3125q-0.671875 0.3125 -1.125 0.90625q-0.453125 0.578125 -0.671875 1.4375q-0.21875 0.859375 -0.21875 1.9375q0 1.09375 0.21875 1.953125q0.21875 0.84375 0.671875 1.421875q0.453125 0.578125 1.125 0.890625q0.671875 0.3125 1.578125 0.3125zm8.42218 1.5l0 -12.15625l1.28125 0q0.453125 0 0.5625 0.4375l0.15625 1.25q0.671875 -0.828125 1.5 -1.34375q0.84375 -0.53125 1.953125 -0.53125q1.234375 0 1.984375 0.6875q0.765625 0.671875 1.109375 1.84375q0.25 -0.65625 0.65625 -1.140625q0.421875 -0.484375 0.9375 -0.796875q0.515625 -0.3125 1.09375 -0.453125q0.59375 -0.140625 1.1875 -0.140625q0.953125 0 1.703125 0.3125q0.75 0.296875 1.265625 0.890625q0.53125 0.578125 0.8125 1.4375q0.28125 0.859375 0.28125 1.96875l0 7.734375l-2.140625 0l0 -7.734375q0 -1.4375 -0.625 -2.171875q-0.625 -0.734375 -1.8125 -0.734375q-0.53125 0 -1.0 0.1875q-0.46875 0.1875 -0.84375 0.546875q-0.359375 0.359375 -0.5625 0.90625q-0.203125 0.546875 -0.203125 1.265625l0 7.734375l-2.140625 0l0 -7.734375q0 -1.46875 -0.59375 -2.1875q-0.578125 -0.71875 -1.71875 -0.71875q-0.78125 0 -1.46875 0.421875q-0.671875 0.421875 -1.234375 1.15625l0 9.0625l-2.140625 0zm19.704163 4.109375l0 -16.265625l1.28125 0q0.453125 0 0.5625 0.4375l0.1875 1.453125q0.78125 -0.953125 1.78125 -1.53125q1.0 -0.578125 2.3125 -0.578125q1.046875 0 1.890625 0.40625q0.859375 0.40625 1.453125 1.1875q0.59375 0.78125 0.921875 1.953125q0.328125 1.15625 0.328125 2.671875q0 1.34375 -0.359375 2.5q-0.359375 1.15625 -1.03125 2.015625q-0.671875 0.84375 -1.65625 1.328125q-0.96875 0.484375 -2.203125 0.484375q-1.125 0 -1.921875 -0.375q-0.796875 -0.375 -1.40625 -1.0625l0 5.375l-2.140625 0zm5.40625 -14.75q-1.03125 0 -1.828125 0.484375q-0.78125 0.46875 -1.4375 1.34375l0 5.890625q0.578125 0.78125 1.28125 1.109375q0.703125 0.328125 1.578125 0.328125q1.6875 0 2.59375 -1.203125q0.921875 -1.21875 0.921875 -3.46875q0 -1.1875 -0.21875 -2.03125q-0.203125 -0.859375 -0.609375 -1.40625q-0.390625 -0.546875 -0.96875 -0.796875q-0.578125 -0.25 -1.3125 -0.25zm12.763733 -1.703125q1.328125 0 2.40625 0.453125q1.078125 0.4375 1.828125 1.25q0.75 0.8125 1.140625 1.96875q0.40625 1.15625 0.40625 2.59375q0 1.4375 -0.40625 2.59375q-0.390625 1.140625 -1.140625 1.96875q-0.75 0.8125 -1.828125 1.25q-1.078125 0.4375 -2.40625 0.4375q-1.328125 0 -2.40625 -0.4375q-1.078125 -0.4375 -1.828125 -1.25q-0.75 -0.828125 -1.171875 -1.96875q-0.40625 -1.15625 -0.40625 -2.59375q0 -1.4375 0.40625 -2.59375q0.421875 -1.15625 1.171875 -1.96875q0.75 -0.8125 1.828125 -1.25q1.078125 -0.453125 2.40625 -0.453125zm0 10.84375q1.796875 0 2.6875 -1.203125q0.890625 -1.203125 0.890625 -3.375q0 -2.171875 -0.890625 -3.375q-0.890625 -1.21875 -2.6875 -1.21875q-0.90625 0 -1.578125 0.3125q-0.671875 0.3125 -1.125 0.90625q-0.453125 0.578125 -0.671875 1.4375q-0.21875 0.859375 -0.21875 1.9375q0 1.09375 0.21875 1.953125q0.21875 0.84375 0.671875 1.421875q0.453125 0.578125 1.125 0.890625q0.671875 0.3125 1.578125 0.3125zm8.42218 1.5l0 -12.15625l1.28125 0q0.453125 0 0.5625 0.4375l0.171875 1.328125q0.796875 -0.875 1.765625 -1.40625q0.984375 -0.546875 2.265625 -0.546875q1.0 0 1.75 0.328125q0.765625 0.328125 1.28125 0.9375q0.515625 0.609375 0.78125 1.46875q0.265625 0.84375 0.265625 1.875l0 7.734375l-2.140625 0l0 -7.734375q0 -1.390625 -0.640625 -2.140625q-0.625 -0.765625 -1.921875 -0.765625q-0.9375 0 -1.765625 0.453125q-0.828125 0.453125 -1.515625 1.234375l0 8.953125l-2.140625 0zm18.156616 -12.34375q1.09375 0 2.015625 0.375q0.921875 0.359375 1.59375 1.046875q0.671875 0.6875 1.046875 1.703125q0.390625 1.015625 0.390625 2.3125q0 0.5 -0.109375 0.671875q-0.109375 0.15625 -0.40625 0.15625l-8.09375 0q0.03125 1.15625 0.3125 2.015625q0.28125 0.84375 0.78125 1.421875q0.515625 0.5625 1.203125 0.84375q0.703125 0.28125 1.5625 0.28125q0.8125 0 1.390625 -0.1875q0.578125 -0.1875 1.0 -0.390625q0.421875 -0.21875 0.703125 -0.40625q0.28125 -0.1875 0.484375 -0.1875q0.265625 0 0.40625 0.203125l0.609375 0.78125q-0.40625 0.484375 -0.953125 0.84375q-0.546875 0.34375 -1.1875 0.578125q-0.625 0.21875 -1.296875 0.328125q-0.671875 0.125 -1.328125 0.125q-1.265625 0 -2.328125 -0.421875q-1.0625 -0.4375 -1.84375 -1.25q-0.765625 -0.828125 -1.203125 -2.03125q-0.421875 -1.21875 -0.421875 -2.796875q0 -1.265625 0.390625 -2.359375q0.390625 -1.109375 1.109375 -1.921875q0.734375 -0.8125 1.796875 -1.265625q1.0625 -0.46875 2.375 -0.46875zm0.046875 1.5625q-1.546875 0 -2.4375 0.90625q-0.890625 0.890625 -1.09375 2.46875l6.609375 0q0 -0.734375 -0.203125 -1.359375q-0.203125 -0.625 -0.609375 -1.0625q-0.390625 -0.453125 -0.96875 -0.703125q-0.5625 -0.25 -1.296875 -0.25zm7.716736 10.78125l0 -12.15625l1.28125 0q0.453125 0 0.5625 0.4375l0.171875 1.328125q0.796875 -0.875 1.765625 -1.40625q0.984375 -0.546875 2.265625 -0.546875q1.0 0 1.75 0.328125q0.765625 0.328125 1.28125 0.9375q0.515625 0.609375 0.78125 1.46875q0.265625 0.84375 0.265625 1.875l0 7.734375l-2.140625 0l0 -7.734375q0 -1.390625 -0.640625 -2.140625q-0.625 -0.765625 -1.921875 -0.765625q-0.9375 0 -1.765625 0.453125q-0.828125 0.453125 -1.515625 1.234375l0 8.953125l-2.140625 0zm17.031616 0.1875q-1.4375 0 -2.21875 -0.796875q-0.765625 -0.8125 -0.765625 -2.3125l0 -7.453125l-1.46875 0q-0.1875 0 -0.328125 -0.109375q-0.125 -0.109375 -0.125 -0.359375l0 -0.84375l1.984375 -0.25l0.5 -3.765625q0.015625 -0.171875 0.140625 -0.28125q0.140625 -0.125 0.34375 -0.125l1.078125 0l0 4.1875l3.484375 0l0 1.546875l-3.484375 0l0 7.296875q0 0.78125 0.375 1.15625q0.375 0.359375 0.96875 0.359375q0.328125 0 0.578125 -0.078125q0.25 -0.09375 0.421875 -0.203125q0.1875 -0.109375 0.3125 -0.203125q0.125 -0.09375 0.21875 -0.09375q0.171875 0 0.296875 0.203125l0.625 1.03125q-0.546875 0.515625 -1.328125 0.8125q-0.78125 0.28125 -1.609375 0.28125z" fill-rule="nonzero"></path><path fill="#cfe2f3" d="m389.1286 464.86905l0 0c0 -6.320099 5.123474 -11.4435425 11.443573 -11.4435425l143.09714 0c3.0349731 0 5.9457397 1.205658 8.091797 3.3517456c2.1461182 2.1460571 3.3517456 5.056793 3.3517456 8.091797l0 45.774292c0 6.320099 -5.123474 11.443573 -11.4435425 11.443573l-143.09714 0c-6.320099 0 -11.443573 -5.123474 -11.443573 -11.443573z" fill-rule="nonzero"></path><path stroke="#9fc5e8" stroke-width="2.0" stroke-linejoin="round" stroke-linecap="butt" d="m389.1286 464.86905l0 0c0 -6.320099 5.123474 -11.4435425 11.443573 -11.4435425l143.09714 0c3.0349731 0 5.9457397 1.205658 8.091797 3.3517456c2.1461182 2.1460571 3.3517456 5.056793 3.3517456 8.091797l0 45.774292c0 6.320099 -5.123474 11.443573 -11.4435425 11.443573l-143.09714 0c-6.320099 0 -11.443573 -5.123474 -11.443573 -11.443573z" fill-rule="nonzero"></path><path fill="#000000" d="m424.1754 492.74933q0.203125 0 0.359375 0.15625l0.90625 0.984375q-1.0625 1.234375 -2.5625 1.921875q-1.5 0.671875 -3.625 0.671875q-1.859375 0 -3.375 -0.640625q-1.515625 -0.640625 -2.59375 -1.796875q-1.0625 -1.15625 -1.65625 -2.765625q-0.578125 -1.625 -0.578125 -3.578125q0 -1.9375 0.625 -3.5625q0.640625 -1.625 1.78125 -2.78125q1.140625 -1.171875 2.71875 -1.8125q1.59375 -0.640625 3.515625 -0.640625q1.890625 0 3.265625 0.59375q1.375 0.578125 2.453125 1.59375l-0.765625 1.0625q-0.078125 0.125 -0.1875 0.203125q-0.109375 0.078125 -0.3125 0.078125q-0.15625 0 -0.328125 -0.109375q-0.171875 -0.125 -0.421875 -0.28125q-0.234375 -0.171875 -0.5625 -0.359375q-0.3125 -0.203125 -0.765625 -0.359375q-0.4375 -0.171875 -1.03125 -0.28125q-0.59375 -0.125 -1.359375 -0.125q-1.375 0 -2.53125 0.484375q-1.140625 0.46875 -1.96875 1.34375q-0.828125 0.875 -1.296875 2.140625q-0.453125 1.25 -0.453125 2.8125q0 1.609375 0.453125 2.875q0.46875 1.25 1.265625 2.125q0.796875 0.875 1.890625 1.328125q1.09375 0.453125 2.359375 0.453125q0.765625 0 1.375 -0.078125q0.609375 -0.09375 1.125 -0.28125q0.53125 -0.203125 0.984375 -0.5q0.453125 -0.296875 0.90625 -0.703125q0.203125 -0.171875 0.390625 -0.171875zm8.908844 -8.796875q1.328125 0 2.40625 0.453125q1.078125 0.4375 1.828125 1.25q0.75 0.8125 1.140625 1.96875q0.40625 1.15625 0.40625 2.59375q0 1.4375 -0.40625 2.59375q-0.390625 1.140625 -1.140625 1.96875q-0.75 0.8125 -1.828125 1.25q-1.078125 0.4375 -2.40625 0.4375q-1.328125 0 -2.40625 -0.4375q-1.078125 -0.4375 -1.828125 -1.25q-0.75 -0.828125 -1.171875 -1.96875q-0.40625 -1.15625 -0.40625 -2.59375q0 -1.4375 0.40625 -2.59375q0.421875 -1.15625 1.171875 -1.96875q0.75 -0.8125 1.828125 -1.25q1.078125 -0.453125 2.40625 -0.453125zm0 10.84375q1.796875 0 2.6875 -1.203125q0.890625 -1.203125 0.890625 -3.375q0 -2.171875 -0.890625 -3.375q-0.890625 -1.21875 -2.6875 -1.21875q-0.90625 0 -1.578125 0.3125q-0.671875 0.3125 -1.125 0.90625q-0.453125 0.578125 -0.671875 1.4375q-0.21875 0.859375 -0.21875 1.9375q0 1.09375 0.21875 1.953125q0.21875 0.84375 0.671875 1.421875q0.453125 0.578125 1.125 0.890625q0.671875 0.3125 1.578125 0.3125zm8.422241 1.5l0 -12.15625l1.28125 0q0.453125 0 0.5625 0.4375l0.15625 1.25q0.671875 -0.828125 1.5 -1.34375q0.84375 -0.53125 1.953125 -0.53125q1.234375 0 1.984375 0.6875q0.765625 0.671875 1.109375 1.84375q0.25 -0.65625 0.65625 -1.140625q0.421875 -0.484375 0.9375 -0.796875q0.515625 -0.3125 1.09375 -0.453125q0.59375 -0.140625 1.1875 -0.140625q0.953125 0 1.703125 0.3125q0.75 0.296875 1.265625 0.890625q0.53125 0.578125 0.8125 1.4375q0.28125 0.859375 0.28125 1.96875l0 7.734375l-2.140625 0l0 -7.734375q0 -1.4375 -0.625 -2.171875q-0.625 -0.734375 -1.8125 -0.734375q-0.53125 0 -1.0 0.1875q-0.46875 0.1875 -0.84375 0.546875q-0.359375 0.359375 -0.5625 0.90625q-0.203125 0.546875 -0.203125 1.265625l0 7.734375l-2.140625 0l0 -7.734375q0 -1.46875 -0.59375 -2.1875q-0.578125 -0.71875 -1.71875 -0.71875q-0.78125 0 -1.46875 0.421875q-0.671875 0.421875 -1.234375 1.15625l0 9.0625l-2.140625 0zm19.704132 4.109375l0 -16.265625l1.28125 0q0.453125 0 0.5625 0.4375l0.1875 1.453125q0.78125 -0.953125 1.78125 -1.53125q1.0 -0.578125 2.3125 -0.578125q1.046875 0 1.890625 0.40625q0.859375 0.40625 1.453125 1.1875q0.59375 0.78125 0.921875 1.953125q0.328125 1.15625 0.328125 2.671875q0 1.34375 -0.359375 2.5q-0.359375 1.15625 -1.03125 2.015625q-0.671875 0.84375 -1.65625 1.328125q-0.96875 0.484375 -2.203125 0.484375q-1.125 0 -1.921875 -0.375q-0.796875 -0.375 -1.40625 -1.0625l0 5.375l-2.140625 0zm5.40625 -14.75q-1.03125 0 -1.828125 0.484375q-0.78125 0.46875 -1.4375 1.34375l0 5.890625q0.578125 0.78125 1.28125 1.109375q0.703125 0.328125 1.578125 0.328125q1.6875 0 2.59375 -1.203125q0.921875 -1.21875 0.921875 -3.46875q0 -1.1875 -0.21875 -2.03125q-0.203125 -0.859375 -0.609375 -1.40625q-0.390625 -0.546875 -0.96875 -0.796875q-0.578125 -0.25 -1.3125 -0.25zm12.763702 -1.703125q1.328125 0 2.40625 0.453125q1.078125 0.4375 1.828125 1.25q0.75 0.8125 1.140625 1.96875q0.40625 1.15625 0.40625 2.59375q0 1.4375 -0.40625 2.59375q-0.390625 1.140625 -1.140625 1.96875q-0.75 0.8125 -1.828125 1.25q-1.078125 0.4375 -2.40625 0.4375q-1.328125 0 -2.40625 -0.4375q-1.078125 -0.4375 -1.828125 -1.25q-0.75 -0.828125 -1.171875 -1.96875q-0.40625 -1.15625 -0.40625 -2.59375q0 -1.4375 0.40625 -2.59375q0.421875 -1.15625 1.171875 -1.96875q0.75 -0.8125 1.828125 -1.25q1.078125 -0.453125 2.40625 -0.453125zm0 10.84375q1.796875 0 2.6875 -1.203125q0.890625 -1.203125 0.890625 -3.375q0 -2.171875 -0.890625 -3.375q-0.890625 -1.21875 -2.6875 -1.21875q-0.90625 0 -1.578125 0.3125q-0.671875 0.3125 -1.125 0.90625q-0.453125 0.578125 -0.671875 1.4375q-0.21875 0.859375 -0.21875 1.9375q0 1.09375 0.21875 1.953125q0.21875 0.84375 0.671875 1.421875q0.453125 0.578125 1.125 0.890625q0.671875 0.3125 1.578125 0.3125zm8.422241 1.5l0 -12.15625l1.28125 0q0.453125 0 0.5625 0.4375l0.171875 1.328125q0.796875 -0.875 1.765625 -1.40625q0.984375 -0.546875 2.265625 -0.546875q1.0 0 1.75 0.328125q0.765625 0.328125 1.28125 0.9375q0.515625 0.609375 0.78125 1.46875q0.265625 0.84375 0.265625 1.875l0 7.734375l-2.140625 0l0 -7.734375q0 -1.390625 -0.640625 -2.140625q-0.625 -0.765625 -1.921875 -0.765625q-0.9375 0 -1.765625 0.453125q-0.828125 0.453125 -1.515625 1.234375l0 8.953125l-2.140625 0zm18.156586 -12.34375q1.09375 0 2.015625 0.375q0.921875 0.359375 1.59375 1.046875q0.671875 0.6875 1.046875 1.703125q0.390625 1.015625 0.390625 2.3125q0 0.5 -0.109375 0.671875q-0.109375 0.15625 -0.40625 0.15625l-8.09375 0q0.03125 1.15625 0.3125 2.015625q0.28125 0.84375 0.78125 1.421875q0.515625 0.5625 1.203125 0.84375q0.703125 0.28125 1.5625 0.28125q0.8125 0 1.390625 -0.1875q0.578125 -0.1875 1.0 -0.390625q0.421875 -0.21875 0.703125 -0.40625q0.28125 -0.1875 0.484375 -0.1875q0.265625 0 0.40625 0.203125l0.609375 0.78125q-0.40625 0.484375 -0.953125 0.84375q-0.546875 0.34375 -1.1875 0.578125q-0.625 0.21875 -1.296875 0.328125q-0.671875 0.125 -1.328125 0.125q-1.265625 0 -2.328125 -0.421875q-1.0625 -0.4375 -1.84375 -1.25q-0.765625 -0.828125 -1.203125 -2.03125q-0.421875 -1.21875 -0.421875 -2.796875q0 -1.265625 0.390625 -2.359375q0.390625 -1.109375 1.109375 -1.921875q0.734375 -0.8125 1.796875 -1.265625q1.0625 -0.46875 2.375 -0.46875zm0.046875 1.5625q-1.546875 0 -2.4375 0.90625q-0.890625 0.890625 -1.09375 2.46875l6.609375 0q0 -0.734375 -0.203125 -1.359375q-0.203125 -0.625 -0.609375 -1.0625q-0.390625 -0.453125 -0.96875 -0.703125q-0.5625 -0.25 -1.296875 -0.25zm7.716736 10.78125l0 -12.15625l1.28125 0q0.453125 0 0.5625 0.4375l0.171875 1.328125q0.796875 -0.875 1.765625 -1.40625q0.984375 -0.546875 2.265625 -0.546875q1.0 0 1.75 0.328125q0.765625 0.328125 1.28125 0.9375q0.515625 0.609375 0.78125 1.46875q0.265625 0.84375 0.265625 1.875l0 7.734375l-2.140625 0l0 -7.734375q0 -1.390625 -0.640625 -2.140625q-0.625 -0.765625 -1.921875 -0.765625q-0.9375 0 -1.765625 0.453125q-0.828125 0.453125 -1.515625 1.234375l0 8.953125l-2.140625 0zm17.031616 0.1875q-1.4375 0 -2.21875 -0.796875q-0.765625 -0.8125 -0.765625 -2.3125l0 -7.453125l-1.46875 0q-0.1875 0 -0.328125 -0.109375q-0.125 -0.109375 -0.125 -0.359375l0 -0.84375l1.984375 -0.25l0.5 -3.765625q0.015625 -0.171875 0.140625 -0.28125q0.140625 -0.125 0.34375 -0.125l1.078125 0l0 4.1875l3.484375 0l0 1.546875l-3.484375 0l0 7.296875q0 0.78125 0.375 1.15625q0.375 0.359375 0.96875 0.359375q0.328125 0 0.578125 -0.078125q0.25 -0.09375 0.421875 -0.203125q0.1875 -0.109375 0.3125 -0.203125q0.125 -0.09375 0.21875 -0.09375q0.171875 0 0.296875 0.203125l0.625 1.03125q-0.546875 0.515625 -1.328125 0.8125q-0.78125 0.28125 -1.609375 0.28125z" fill-rule="nonzero"></path><path fill="#000000" fill-opacity="0.0" d="m414.07874 199.57742l-167.05511 89.60629" fill-rule="nonzero"></path><path stroke="#000000" stroke-width="2.0" stroke-linejoin="round" stroke-linecap="butt" d="m414.07874 199.57742l-156.48032 83.93411" fill-rule="evenodd"></path><path fill="#000000" stroke="#000000" stroke-width="2.0" stroke-linecap="butt" d="m256.03693 280.6004l-6.4367523 7.201294l9.559738 -1.3790283z" fill-rule="evenodd"></path><path fill="#000000" fill-opacity="0.0" d="m416.25198 199.57742l162.74014 89.60629" fill-rule="nonzero"></path><path stroke="#000000" stroke-width="2.0" stroke-linejoin="round" stroke-linecap="butt" d="m416.25198 199.57742l152.22824 83.81836" fill-rule="evenodd"></path><path fill="#000000" stroke="#000000" stroke-width="2.0" stroke-linecap="butt" d="m566.8869 286.28958l9.544006 1.4839172l-6.3573 -7.271515z" fill-rule="evenodd"></path><path fill="#000000" fill-opacity="0.0" d="m578.9921 357.84515l133.98425 95.590546" fill-rule="nonzero"></path><path stroke="#000000" stroke-width="2.0" stroke-linejoin="round" stroke-linecap="butt" d="m578.9921 357.84515l124.215576 88.621124" fill-rule="evenodd"></path><path fill="#000000" stroke="#000000" stroke-width="2.0" stroke-linecap="butt" d="m701.2891 449.1555l9.307129 2.5820923l-5.4699707 -7.9605103z" fill-rule="evenodd"></path><path fill="#000000" fill-opacity="0.0" d="m578.9921 357.84515l-106.86615 95.590546" fill-rule="nonzero"></path><path stroke="#000000" stroke-width="2.0" stroke-linejoin="round" stroke-linecap="butt" d="m578.9921 357.84515l-97.92215 87.59024" fill-rule="evenodd"></path><path fill="#000000" stroke="#000000" stroke-width="2.0" stroke-linecap="butt" d="m478.86758 442.9732l-4.562378 8.513214l8.967163 -3.5888367z" fill-rule="evenodd"></path><path fill="#000000" fill-opacity="0.0" d="m86.8189 86.72441l-1.0708694 534.3622" fill-rule="nonzero"></path><path stroke="#93c47d" stroke-width="8.0" stroke-linejoin="round" stroke-linecap="butt" d="m86.8189 86.72441l-0.97467804 486.36224" fill-rule="evenodd"></path><path fill="#93c47d" stroke="#93c47d" stroke-width="8.0" stroke-linecap="butt" d="m72.630394 573.06024l13.141075 36.331177l13.286591 -36.2782z" fill-rule="evenodd"></path><path fill="#000000" fill-opacity="0.0" d="m878.8189 86.72441l-1.0708618 534.3622" fill-rule="nonzero"></path><path stroke="#93c47d" stroke-width="8.0" stroke-linejoin="round" stroke-linecap="butt" d="m878.7227 134.7243l-0.9746704 486.3623" fill-rule="evenodd"></path><path fill="#93c47d" stroke="#93c47d" stroke-width="8.0" stroke-linecap="butt" d="m891.9365 134.7508l-13.141052 -36.331192l-13.286621 36.27823z" fill-rule="evenodd"></path><path fill="#000000" fill-opacity="0.0" d="m85.74803 86.72441l115.87401 0l0 72.09448l-115.87401 0z" fill-rule="nonzero"></path><path fill="#38761d" d="m117.62303 114.88191q0 2.53125 -0.84375 4.671875q-0.84375 2.125 -2.390625 3.65625q-1.53125 1.53125 -3.6875 2.390625q-2.15625 0.84375 -4.78125 0.84375l-8.828125 0l0 -23.140625l8.828125 0q2.625 0 4.78125 0.859375q2.15625 0.859375 3.6875 2.390625q1.546875 1.515625 2.390625 3.65625q0.84375 2.125 0.84375 4.671875zm-4.390625 0q0 -1.90625 -0.515625 -3.421875q-0.515625 -1.515625 -1.46875 -2.5625q-0.9375 -1.046875 -2.296875 -1.609375q-1.34375 -0.5625 -3.03125 -0.5625l-4.5 0l0 16.296875l4.5 0q1.6875 0 3.03125 -0.5625q1.359375 -0.5625 2.296875 -1.609375q0.953125 -1.046875 1.46875 -2.546875q0.515625 -1.515625 0.515625 -3.421875zm20.404419 11.5625l-1.765625 0q-0.5625 0 -0.890625 -0.171875q-0.3125 -0.171875 -0.46875 -0.671875l-0.359375 -1.171875q-0.625 0.5625 -1.234375 0.984375q-0.59375 0.421875 -1.234375 0.71875q-0.625 0.28125 -1.359375 0.421875q-0.71875 0.140625 -1.59375 0.140625q-1.03125 0 -1.921875 -0.265625q-0.875 -0.28125 -1.515625 -0.84375q-0.625 -0.5625 -0.984375 -1.390625q-0.34375 -0.84375 -0.34375 -1.9375q0 -0.9375 0.484375 -1.828125q0.484375 -0.90625 1.625 -1.640625q1.140625 -0.734375 3.015625 -1.203125q1.890625 -0.484375 4.703125 -0.546875l0 -0.96875q0 -1.640625 -0.703125 -2.421875q-0.6875 -0.796875 -2.015625 -0.796875q-0.96875 0 -1.609375 0.21875q-0.640625 0.21875 -1.109375 0.5q-0.46875 0.28125 -0.875 0.515625q-0.390625 0.21875 -0.875 0.21875q-0.40625 0 -0.703125 -0.203125q-0.28125 -0.21875 -0.453125 -0.515625l-0.71875 -1.265625q2.828125 -2.59375 6.828125 -2.59375q1.453125 0 2.578125 0.46875q1.125 0.46875 1.90625 1.3125q0.78125 0.84375 1.1875 2.015625q0.40625 1.15625 0.40625 2.546875l0 10.375zm-7.671875 -2.46875q0.609375 0 1.109375 -0.109375q0.515625 -0.109375 0.96875 -0.328125q0.46875 -0.234375 0.890625 -0.5625q0.421875 -0.328125 0.859375 -0.765625l0 -2.78125q-1.734375 0.09375 -2.890625 0.3125q-1.15625 0.203125 -1.875 0.546875q-0.703125 0.328125 -1.0 0.78125q-0.28125 0.453125 -0.28125 0.96875q0 1.046875 0.609375 1.5q0.609375 0.4375 1.609375 0.4375zm16.955154 2.71875q-2.125 0 -3.28125 -1.203125q-1.140625 -1.203125 -1.140625 -3.328125l0 -9.171875l-1.671875 0q-0.3125 0 -0.546875 -0.203125q-0.234375 -0.21875 -0.234375 -0.625l0 -1.578125l2.640625 -0.421875l0.828125 -4.484375q0.0625 -0.328125 0.296875 -0.5q0.234375 -0.171875 0.578125 -0.171875l2.0625 0l0 5.171875l4.3125 0l0 2.8125l-4.3125 0l0 8.890625q0 0.765625 0.375 1.203125q0.390625 0.4375 1.03125 0.4375q0.359375 0 0.609375 -0.09375q0.25 -0.09375 0.421875 -0.1875q0.1875 -0.09375 0.328125 -0.171875q0.15625 -0.09375 0.296875 -0.09375q0.171875 0 0.28125 0.09375q0.125 0.078125 0.25 0.25l1.1875 1.921875q-0.875 0.71875 -2.0 1.09375q-1.109375 0.359375 -2.3125 0.359375zm19.852768 -0.25l-1.765625 0q-0.5625 0 -0.890625 -0.171875q-0.3125 -0.171875 -0.46875 -0.671875l-0.359375 -1.171875q-0.625 0.5625 -1.234375 0.984375q-0.59375 0.421875 -1.234375 0.71875q-0.625 0.28125 -1.359375 0.421875q-0.71875 0.140625 -1.59375 0.140625q-1.03125 0 -1.921875 -0.265625q-0.875 -0.28125 -1.515625 -0.84375q-0.625 -0.5625 -0.984375 -1.390625q-0.34375 -0.84375 -0.34375 -1.9375q0 -0.9375 0.484375 -1.828125q0.484375 -0.90625 1.625 -1.640625q1.140625 -0.734375 3.015625 -1.203125q1.890625 -0.484375 4.703125 -0.546875l0 -0.96875q0 -1.640625 -0.703125 -2.421875q-0.6875 -0.796875 -2.015625 -0.796875q-0.96875 0 -1.609375 0.21875q-0.640625 0.21875 -1.109375 0.5q-0.46875 0.28125 -0.875 0.515625q-0.390625 0.21875 -0.875 0.21875q-0.40625 0 -0.703125 -0.203125q-0.28125 -0.21875 -0.453125 -0.515625l-0.71875 -1.265625q2.828125 -2.59375 6.828125 -2.59375q1.453125 0 2.578125 0.46875q1.125 0.46875 1.90625 1.3125q0.78125 0.84375 1.1875 2.015625q0.40625 1.15625 0.40625 2.546875l0 10.375zm-7.671875 -2.46875q0.609375 0 1.109375 -0.109375q0.515625 -0.109375 0.96875 -0.328125q0.46875 -0.234375 0.890625 -0.5625q0.421875 -0.328125 0.859375 -0.765625l0 -2.78125q-1.734375 0.09375 -2.890625 0.3125q-1.15625 0.203125 -1.875 0.546875q-0.703125 0.328125 -1.0 0.78125q-0.28125 0.453125 -0.28125 0.96875q0 1.046875 0.609375 1.5q0.609375 0.4375 1.609375 0.4375z" fill-rule="nonzero"></path><path fill="#000000" fill-opacity="0.0" d="m761.874 548.9921l115.87402 0l0 72.09448l-115.87402 0z" fill-rule="nonzero"></path><path fill="#38761d" d="m788.6137 565.5715l0 3.421875l-10.25 0l0 6.421875l8.078125 0l0 3.3125l-8.078125 0l0 6.546875l10.25 0l0 3.4375l-14.578125 0l0 -23.140625l14.578125 0zm11.741943 23.140625l-3.59375 0l-6.53125 -16.421875l3.28125 0q0.4375 0 0.734375 0.21875q0.296875 0.203125 0.40625 0.515625l3.171875 8.78125q0.265625 0.765625 0.453125 1.5q0.1875 0.734375 0.328125 1.46875q0.140625 -0.734375 0.328125 -1.46875q0.1875 -0.734375 0.46875 -1.5l3.25 -8.78125q0.109375 -0.3125 0.390625 -0.515625q0.296875 -0.21875 0.703125 -0.21875l3.109375 0l-6.5 16.421875zm15.6188965 -16.671875q1.5625 0 2.859375 0.5q1.3125 0.484375 2.25 1.4375q0.9375 0.953125 1.46875 2.34375q0.53125 1.375 0.53125 3.15625q0 0.453125 -0.046875 0.75q-0.03125 0.296875 -0.140625 0.46875q-0.09375 0.15625 -0.28125 0.234375q-0.171875 0.0625 -0.4375 0.0625l-10.15625 0q0.1875 2.53125 1.359375 3.71875q1.1875 1.1875 3.140625 1.1875q0.96875 0 1.65625 -0.21875q0.703125 -0.234375 1.21875 -0.5q0.515625 -0.28125 0.90625 -0.5q0.390625 -0.21875 0.765625 -0.21875q0.234375 0 0.40625 0.09375q0.1875 0.09375 0.3125 0.265625l1.15625 1.4375q-0.65625 0.765625 -1.484375 1.296875q-0.8125 0.515625 -1.703125 0.828125q-0.875 0.3125 -1.796875 0.4375q-0.921875 0.125 -1.78125 0.125q-1.71875 0 -3.1875 -0.5625q-1.46875 -0.5625 -2.5625 -1.671875q-1.09375 -1.125 -1.71875 -2.765625q-0.609375 -1.640625 -0.609375 -3.796875q0 -1.671875 0.53125 -3.15625q0.546875 -1.484375 1.5625 -2.578125q1.015625 -1.09375 2.484375 -1.734375q1.46875 -0.640625 3.296875 -0.640625zm0.078125 2.828125q-1.71875 0 -2.703125 0.984375q-0.96875 0.96875 -1.234375 2.765625l7.421875 0q0 -0.765625 -0.21875 -1.4375q-0.203125 -0.6875 -0.640625 -1.203125q-0.421875 -0.515625 -1.078125 -0.8125q-0.65625 -0.296875 -1.546875 -0.296875zm10.244629 13.84375l0 -16.421875l2.421875 0q0.765625 0 1.0 0.71875l0.28125 1.296875q0.484375 -0.5 1.03125 -0.921875q0.5625 -0.421875 1.171875 -0.71875q0.625 -0.3125 1.328125 -0.46875q0.703125 -0.15625 1.53125 -0.15625q1.34375 0 2.375 0.453125q1.046875 0.453125 1.75 1.28125q0.703125 0.828125 1.0625 1.96875q0.359375 1.140625 0.359375 2.515625l0 10.453125l-3.953125 0l0 -10.453125q0 -1.5 -0.703125 -2.3125q-0.6875 -0.828125 -2.078125 -0.828125q-1.03125 0 -1.9375 0.46875q-0.890625 0.453125 -1.6875 1.25l0 11.875l-3.953125 0zm23.582703 0.25q-2.125 0 -3.28125 -1.203125q-1.140625 -1.203125 -1.140625 -3.328125l0 -9.171875l-1.671875 0q-0.3125 0 -0.546875 -0.203125q-0.234375 -0.21875 -0.234375 -0.625l0 -1.578125l2.640625 -0.421875l0.828125 -4.484375q0.0625 -0.328125 0.296875 -0.5q0.234375 -0.171875 0.578125 -0.171875l2.0625 0l0 5.171875l4.3125 0l0 2.8125l-4.3125 0l0 8.890625q0 0.765625 0.375 1.203125q0.390625 0.4375 1.03125 0.4375q0.359375 0 0.609375 -0.09375q0.25 -0.09375 0.421875 -0.1875q0.1875 -0.09375 0.328125 -0.171875q0.15625 -0.09375 0.296875 -0.09375q0.171875 0 0.28125 0.09375q0.125 0.078125 0.25 0.25l1.1875 1.921875q-0.875 0.71875 -2.0 1.09375q-1.109375 0.359375 -2.3125 0.359375zm16.743347 -13.46875q-0.15625 0.265625 -0.34375 0.375q-0.171875 0.09375 -0.4375 0.09375q-0.296875 0 -0.625 -0.15625q-0.328125 -0.171875 -0.765625 -0.359375q-0.421875 -0.203125 -0.984375 -0.359375q-0.546875 -0.171875 -1.296875 -0.171875q-1.171875 0 -1.84375 0.5q-0.671875 0.5 -0.671875 1.296875q0 0.53125 0.34375 0.890625q0.34375 0.359375 0.90625 0.640625q0.578125 0.265625 1.296875 0.484375q0.71875 0.203125 1.46875 0.46875q0.75 0.25 1.46875 0.578125q0.734375 0.328125 1.296875 0.84375q0.5625 0.5 0.90625 1.203125q0.34375 0.703125 0.34375 1.6875q0 1.1875 -0.4375 2.1875q-0.421875 1.0 -1.25 1.734375q-0.828125 0.71875 -2.0625 1.125q-1.21875 0.40625 -2.796875 0.40625q-0.859375 0 -1.671875 -0.15625q-0.796875 -0.140625 -1.546875 -0.40625q-0.734375 -0.28125 -1.375 -0.640625q-0.625 -0.375 -1.109375 -0.8125l0.90625 -1.5q0.1875 -0.265625 0.421875 -0.40625q0.234375 -0.15625 0.609375 -0.15625q0.359375 0 0.6875 0.21875q0.328125 0.203125 0.765625 0.453125q0.4375 0.234375 1.015625 0.4375q0.578125 0.203125 1.484375 0.203125q0.703125 0 1.203125 -0.15625q0.5 -0.171875 0.828125 -0.4375q0.328125 -0.28125 0.484375 -0.640625q0.15625 -0.359375 0.15625 -0.75q0 -0.578125 -0.34375 -0.9375q-0.34375 -0.375 -0.921875 -0.640625q-0.5625 -0.28125 -1.296875 -0.484375q-0.71875 -0.21875 -1.484375 -0.46875q-0.75 -0.265625 -1.484375 -0.609375q-0.734375 -0.34375 -1.296875 -0.875q-0.5625 -0.53125 -0.90625 -1.296875q-0.34375 -0.765625 -0.34375 -1.84375q0 -1.015625 0.390625 -1.921875q0.40625 -0.921875 1.171875 -1.59375q0.78125 -0.6875 1.9375 -1.09375q1.171875 -0.40625 2.6875 -0.40625q1.703125 0 3.09375 0.5625q1.390625 0.5625 2.3125 1.46875l-0.890625 1.421875z" fill-rule="nonzero"></path></g></svg>

